<?xml version="1.0" encoding="UTF-8" standalone="no"?>
<svg 
   width="39.119999pt"
   height="41.040001pt"
   viewBox="0 0 39.119999 41.040001"
   version="1.1"
   id="svg10"
   xmlns="http://www.w3.org/2000/svg"
   xmlns:svg="http://www.w3.org/2000/svg" content="%3Cmxfile%20host%3D%22www.draw.io%22%20modified%3D%222022-12-29T17%3A06%3A28.620Z%22%20agent%3D%225.0%20(X11)%22%20version%3D%2220.7.4%22%20etag%3D%22Jn8d5AWDrBceYmmX_Euv%22%3E%3Cdiagram%20id%3D%22xG5AlQ3uaxvIja2SJEgx%22%20name%3D%22Page-1%22%3E1ZXBUoMwEEC%2FhqMzIWmpvbZWPdhTZ%2FToRLJANLBMSIX69aYSCrGttTP14IXJvmx2w0sGAjbPmzvNy2yJAlRAiWgCdhNQGpGJfW7BpgWMTFuQailaFPZgJT%2FAQeLoWgqovESDqIwsfRhjUUBsPMa1xtpPS1D5XUueuo6kB6uYK9hLe5LCZC29Hg%2By70GmWdc5JG4m512yA1XGBdYDxBYBm2tE047yZg5q667z0q67PTK725iGwvxmwXO1Wj5UspbrhL7Q1%2FuFih%2BvXJV3rtbuhd1mzaYzUGfSwKrk8Tau7SEHbJaZXNkotENela33RDZgW81cRdAGmqNbDXcC7MUBzMHojU1xC0ZO2cYP6%2F4AOv%2FZwH3HuDvydFe3t2IHTswZkuhpSbaKvZE2mJ2rK5FKzVGh%2FirEXkIhEmJ5ZTS%2BwWAmJBM2hcsIHvuCx%2FuC2QHB7K8Ej04L1rguxFbYDTkt2XdXYAH7omnEaTS9jM5o5Omc7Oukh%2B7rH9mMLmxTo%2BFGYmHDKflBZKq5kNbYN%2B8HD%2BMfSbdh%2F5H%2Bmhv86djiEw%3D%3D%3C%2Fdiagram%3E%3C%2Fmxfile%3E">
  <defs
     id="defs14" />
  <path
     fill-rule="nonzero"
     fill="rgb(100%, 100%, 100%)"
     fill-opacity="1"
     stroke-width="1"
     stroke-linecap="butt"
     stroke-linejoin="miter"
     stroke="rgb(0%, 0%, 0%)"
     stroke-opacity="1"
     stroke-miterlimit="4"
     d="M 1.002304 1.002304 L 50.997699 1.002304 L 50.997699 50.997699 L 1.002304 50.997699 Z M 1.002304 1.002304 "
     transform="matrix(0.735849, 0, 0, 0.735849, 0.367925, 0.367925)"
     id="path2" />
  <path
     fill-rule="nonzero"
     fill="rgb(69.40918%, 86.669922%, 94.119263%)"
     fill-opacity="1"
     stroke-width="1"
     stroke-linecap="butt"
     stroke-linejoin="miter"
     stroke="rgb(6.269836%, 45.098877%, 61.959839%)"
     stroke-opacity="1"
     stroke-miterlimit="4"
     d="M 41.001805 26.000001 C 41.001805 26.987381 40.906252 27.958836 40.709838 28.924982 C 40.518732 29.891127 40.237382 30.830731 39.860479 31.738483 C 39.483576 32.651544 39.021737 33.516829 38.469654 34.334337 C 37.922879 35.151845 37.301785 35.910959 36.606372 36.606372 C 35.910959 37.301785 35.151845 37.922879 34.334337 38.469654 C 33.516829 39.021737 32.651544 39.483576 31.738483 39.860479 C 30.830731 40.237382 29.891127 40.518732 28.924982 40.709838 C 27.958836 40.906252 26.987381 41.001805 26.000001 41.001805 C 25.012622 41.001805 24.041167 40.906252 23.075021 40.709838 C 22.108875 40.518732 21.169272 40.237382 20.26152 39.860479 C 19.348459 39.483576 18.483174 39.021737 17.665666 38.469654 C 16.848158 37.922879 16.089043 37.301785 15.393631 36.606372 C 14.698218 35.910959 14.077124 35.151845 13.530349 34.334337 C 12.978266 33.516829 12.516427 32.651544 12.139524 31.738483 C 11.762621 30.830731 11.481271 29.891127 11.290165 28.924982 C 11.093751 27.958836 10.998198 26.987381 10.998198 26.000001 C 10.998198 25.012622 11.093751 24.041167 11.290165 23.075021 C 11.481271 22.108875 11.762621 21.169272 12.139524 20.26152 C 12.516427 19.348459 12.978266 18.483174 13.530349 17.665666 C 14.077124 16.848158 14.698218 16.089043 15.393631 15.393631 C 16.089043 14.698218 16.848158 14.077124 17.665666 13.530349 C 18.483174 12.978266 19.348459 12.516427 20.26152 12.139524 C 21.169272 11.762621 22.108875 11.481271 23.075021 11.290165 C 24.041167 11.093751 25.012622 10.998198 26.000001 10.998198 C 26.987381 10.998198 27.958836 11.093751 28.924982 11.290165 C 29.891127 11.481271 30.830731 11.762621 31.738483 12.139524 C 32.651544 12.516427 33.516829 12.978266 34.334337 13.530349 C 35.151845 14.077124 35.910959 14.698218 36.606372 15.393631 C 37.301785 16.089043 37.922879 16.848158 38.469654 17.665666 C 39.021737 18.483174 39.483576 19.348459 39.860479 20.26152 C 40.237382 21.169272 40.518732 22.108875 40.709838 23.075021 C 40.906252 24.041167 41.001805 25.012622 41.001805 26.000001 Z M 41.001805 26.000001 "
     transform="matrix(0.735849, 0, 0, 0.735849, 0.367925, 0.367925)"
     id="path4" />
  <path
     fill-rule="nonzero"
     fill="rgb(14.898682%, 63.529968%, 41.178894%)"
     fill-opacity="1"
     d="M 18.765625 23.179688 L 33.480469 23.179688 L 33.480469 26.859375 L 18.765625 26.859375 Z M 18.765625 23.179688 "
     id="path6" />
  <path
     fill-rule="nonzero"
     fill="rgb(14.898682%, 63.529968%, 41.178894%)"
     fill-opacity="1"
     d="M 27.960938 17.660156 L 27.960938 32.378906 L 24.28125 32.378906 L 24.28125 17.660156 Z M 27.960938 17.660156 "
     id="path8" />
</svg>
