<?xml version="1.0" encoding="UTF-8" standalone="no"?>
<svg 
   width="39.119999pt"
   height="41.040001pt"
   viewBox="0 0 39.119999 41.040001"
   version="1.1"
   id="svg35"
   xmlns="http://www.w3.org/2000/svg"
   xmlns:svg="http://www.w3.org/2000/svg" content="%3Cmxfile%20host%3D%22www.draw.io%22%20modified%3D%222022-12-29T17%3A08%3A16.584Z%22%20agent%3D%225.0%20(X11)%22%20version%3D%2220.7.4%22%20etag%3D%22z7SdKU7KwRwFBY917fFd%22%3E%3Cdiagram%20id%3D%221IoCOmtQ6GZ9adNUwsLy%22%3E3ZZRk5sgEMc%2Fje8KJqmPTXLXvnSmM3no3SMNG2UOxUFyaj99MYCKepd0LtOZ9sVh%2F%2Bwu8GMRArzLmy%2BSlNk3QYEHKKRNgPcBQiiO9bcTWiNEyAqpZNRKg3Bgv8CKoVXPjELlOSohuGKlLx5FUcBReRqRUtS%2B20lwf9SSpDATDkfC5%2BoPRlVm1E%2BrcNC%2FAkszN3IU2p6cOGcrVBmhoh5J%2BCHAOymEMq282QHv2DkuJu7xjd5%2BYhIKdUsAMgGvhJ%2Ft2uy8VOsWW2dMwaEkx86u9X4GeJupnGsr0k1SlQbxiTWgs25tRpAKmjdnFfVr1TUCIgclW%2B3iAhweWx%2BxNesBtmOdjTg7jdjtTfvEAwHdsBCWgeDrQHSALjRtbP8UzYlxvhNcyEsi%2FDOi9BRqvVJSvMCoJwo3OIF7wcQezA2awYxWc5hO%2BwjM%2BDpMKc4F7eDsw%2BtAfU6FKGAOFa0JWid3Qud%2BVA7dvA7RUh1%2BnNzqzuSkUEQxUWgzCd%2BBlkpCmaYzYbwI%2Fp8GvP7%2FzvkK%2BT9N%2FNfO%2BeYGmAX93N28Q%2Fl41TkuZb1e2T6NjWfrdzH2zbhr3zqrYerJ%2Ben280gfQjrDRZjdcBd43O8C0MntX4mzPIJ3PygiU1BeKd2wUzfeXxK4Pqyv%2FiSW9seO8F0wPXBfCIl%2FpqJ4ci2a5dig8dtgkmd6OJNJHsNgludSLP2il%2BpHm8MLx7gPz0T88Bs%3D%3C%2Fdiagram%3E%3C%2Fmxfile%3E">
  <defs
     id="defs11">
    <clipPath
       id="clip-0">
      <path
         clip-rule="nonzero"
         d="M 0 20 L 19 20 L 19 39 L 0 39 Z M 0 20 "
         id="path2" />
    </clipPath>
    <clipPath
       id="clip-1">
      <path
         clip-rule="nonzero"
         d="M 20 0 L 39 0 L 39 19 L 20 19 Z M 20 0 "
         id="path5" />
    </clipPath>
    <clipPath
       id="clip-2">
      <path
         clip-rule="nonzero"
         d="M 0 0 L 39 0 L 39 39 L 0 39 Z M 0 0 "
         id="path8" />
    </clipPath>
  </defs>
  <path
     fill-rule="nonzero"
     fill="rgb(100%, 100%, 100%)"
     fill-opacity="1"
     stroke-width="1"
     stroke-linecap="butt"
     stroke-linejoin="miter"
     stroke="rgb(0%, 0%, 0%)"
     stroke-opacity="1"
     stroke-miterlimit="4"
     d="M 1.002304 1.002304 L 50.997699 1.002304 L 50.997699 50.997699 L 1.002304 50.997699 Z M 1.002304 1.002304 "
     transform="matrix(0.735849, 0, 0, 0.735849, 0.367925, 0.367925)"
     id="path13" />
  <path
     fill-rule="nonzero"
     fill="rgb(69.40918%, 86.669922%, 94.119263%)"
     fill-opacity="1"
     d="M 14.347656 30.167969 C 14.347656 30.53125 14.3125 30.890625 14.242188 31.246094 C 14.171875 31.601563 14.066406 31.945313 13.929688 32.28125 C 13.789063 32.617188 13.621094 32.933594 13.417969 33.234375 C 13.21875 33.539063 12.988281 33.816406 12.734375 34.070313 C 12.476563 34.328125 12.199219 34.558594 11.894531 34.757813 C 11.59375 34.960938 11.277344 35.128906 10.941406 35.269531 C 10.605469 35.40625 10.261719 35.511719 9.90625 35.582031 C 9.550781 35.652344 9.191406 35.6875 8.832031 35.6875 C 8.46875 35.6875 8.109375 35.652344 7.753906 35.582031 C 7.398438 35.511719 7.054688 35.40625 6.71875 35.269531 C 6.382813 35.128906 6.066406 34.960938 5.765625 34.757813 C 5.460938 34.558594 5.183594 34.328125 4.929688 34.070313 C 4.671875 33.816406 4.441406 33.539063 4.242188 33.234375 C 4.039063 32.933594 3.871094 32.617188 3.730469 32.28125 C 3.59375 31.945313 3.488281 31.601563 3.417969 31.246094 C 3.347656 30.890625 3.3125 30.53125 3.3125 30.167969 C 3.3125 29.808594 3.347656 29.449219 3.417969 29.09375 C 3.488281 28.738281 3.59375 28.394531 3.730469 28.058594 C 3.871094 27.722656 4.039063 27.40625 4.242188 27.105469 C 4.441406 26.800781 4.671875 26.523438 4.929688 26.265625 C 5.183594 26.011719 5.460938 25.78125 5.765625 25.582031 C 6.066406 25.378906 6.382813 25.210938 6.71875 25.070313 C 7.054688 24.933594 7.398438 24.828125 7.753906 24.757813 C 8.109375 24.6875 8.46875 24.652344 8.832031 24.652344 C 9.191406 24.652344 9.550781 24.6875 9.90625 24.757813 C 10.261719 24.828125 10.605469 24.933594 10.941406 25.070313 C 11.277344 25.210938 11.59375 25.378906 11.894531 25.582031 C 12.199219 25.78125 12.476563 26.011719 12.734375 26.265625 C 12.988281 26.523438 13.21875 26.800781 13.417969 27.105469 C 13.621094 27.40625 13.789063 27.722656 13.929688 28.058594 C 14.066406 28.394531 14.171875 28.738281 14.242188 29.09375 C 14.3125 29.449219 14.347656 29.808594 14.347656 30.167969 Z M 14.347656 30.167969 "
     id="path15" />
  <g
     clip-path="url(#clip-0)"
     id="g19">
    <path
       fill="none"
       stroke-width="1"
       stroke-linecap="butt"
       stroke-linejoin="miter"
       stroke="#10739e"
       stroke-opacity="1"
       stroke-miterlimit="4"
       d="m 18.998098,40.497498 c 0,0.49369 -0.04778,0.982072 -0.143329,1.465144 -0.09555,0.483073 -0.238883,0.950221 -0.42468,1.406751 -0.191106,0.456531 -0.419371,0.886519 -0.695413,1.295273 -0.270733,0.414062 -0.583934,0.790965 -0.928986,1.136018 -0.350361,0.35036 -0.727264,0.663561 -1.141326,0.934294 -0.408754,0.276042 -0.838742,0.504307 -1.295273,0.695413 -0.45653,0.185797 -0.923678,0.329127 -1.406751,0.42468 -0.483072,0.09555 -0.971454,0.143329 -1.459835,0.143329 -0.49369,0 -0.982072,-0.04778 -1.465145,-0.143329 C 9.554287,47.759518 9.08714,47.616188 8.630609,47.430391 8.174079,47.239285 7.744091,47.01102 7.335337,46.734978 6.921274,46.464245 6.544371,46.151044 6.199319,45.800684 5.848959,45.455631 5.535758,45.078728 5.265024,44.664666 4.988983,44.255912 4.760717,43.825924 4.569612,43.369393 4.383814,42.912863 4.240485,42.445715 4.144932,41.962642 4.049379,41.47957 4.001603,40.991188 4.001603,40.497498 c 0,-0.488381 0.047776,-0.976763 0.143329,-1.459836 0.095553,-0.483073 0.238882,-0.95022 0.42468,-1.406751 0.191105,-0.45653 0.419371,-0.886518 0.695412,-1.295272 0.270734,-0.414063 0.583935,-0.790966 0.934295,-1.141326 0.345052,-0.345052 0.721955,-0.658253 1.136018,-0.928987 0.408754,-0.276041 0.838742,-0.504307 1.295272,-0.695412 0.456531,-0.185798 0.923678,-0.329127 1.406751,-0.42468 0.483073,-0.09555 0.971455,-0.143329 1.465145,-0.143329 0.488381,0 0.976763,0.04778 1.459835,0.143329 0.483073,0.09555 0.950221,0.238882 1.406751,0.42468 0.456531,0.191105 0.886519,0.419371 1.295273,0.695412 0.414062,0.270734 0.790965,0.583935 1.141326,0.928987 0.345052,0.35036 0.658253,0.727263 0.928986,1.141326 0.276042,0.408754 0.504307,0.838742 0.695413,1.295272 0.185797,0.456531 0.329127,0.923678 0.42468,1.406751 0.09555,0.483073 0.143329,0.971455 0.143329,1.459836 z m 0,0"
       transform="matrix(0.735849,0,0,0.735849,0.367925,0.367925)"
       id="path17" />
  </g>
  <path
     fill-rule="nonzero"
     fill="rgb(14.898682%, 63.529968%, 41.178894%)"
     fill-opacity="1"
     d="M 18.765625 23.179688 L 33.480469 23.179688 L 33.480469 26.859375 L 18.765625 26.859375 Z M 18.765625 23.179688 "
     id="path21" />
  <path
     fill-rule="nonzero"
     fill="rgb(14.898682%, 63.529968%, 41.178894%)"
     fill-opacity="1"
     d="M 27.960938 17.660156 L 27.960938 32.378906 L 24.28125 32.378906 L 24.28125 17.660156 Z M 27.960938 17.660156 "
     id="path23" />
  <path
     fill-rule="nonzero"
     fill="rgb(69.40918%, 86.669922%, 94.119263%)"
     fill-opacity="1"
     d="M 35.6875 8.832031 C 35.6875 9.191406 35.652344 9.550781 35.582031 9.90625 C 35.511719 10.261719 35.40625 10.605469 35.269531 10.941406 C 35.128906 11.277344 34.960938 11.59375 34.757813 11.894531 C 34.558594 12.199219 34.328125 12.476563 34.070313 12.734375 C 33.816406 12.988281 33.539063 13.21875 33.234375 13.417969 C 32.933594 13.621094 32.617188 13.789063 32.28125 13.929688 C 31.945313 14.066406 31.601563 14.171875 31.246094 14.242188 C 30.890625 14.3125 30.53125 14.347656 30.167969 14.347656 C 29.808594 14.347656 29.449219 14.3125 29.09375 14.242188 C 28.738281 14.171875 28.394531 14.066406 28.058594 13.929688 C 27.722656 13.789063 27.40625 13.621094 27.105469 13.417969 C 26.800781 13.21875 26.523438 12.988281 26.265625 12.734375 C 26.011719 12.476563 25.78125 12.199219 25.582031 11.894531 C 25.378906 11.59375 25.210938 11.277344 25.070313 10.941406 C 24.933594 10.605469 24.828125 10.261719 24.757813 9.90625 C 24.6875 9.550781 24.652344 9.191406 24.652344 8.832031 C 24.652344 8.46875 24.6875 8.109375 24.757813 7.753906 C 24.828125 7.398438 24.933594 7.054688 25.070313 6.71875 C 25.210938 6.382813 25.378906 6.066406 25.582031 5.765625 C 25.78125 5.460938 26.011719 5.183594 26.265625 4.929688 C 26.523438 4.671875 26.800781 4.441406 27.105469 4.242188 C 27.40625 4.039063 27.722656 3.871094 28.058594 3.730469 C 28.394531 3.59375 28.738281 3.488281 29.09375 3.417969 C 29.449219 3.347656 29.808594 3.3125 30.167969 3.3125 C 30.53125 3.3125 30.890625 3.347656 31.246094 3.417969 C 31.601563 3.488281 31.945313 3.59375 32.28125 3.730469 C 32.617188 3.871094 32.933594 4.039063 33.234375 4.242188 C 33.539063 4.441406 33.816406 4.671875 34.070313 4.929688 C 34.328125 5.183594 34.558594 5.460938 34.757813 5.765625 C 34.960938 6.066406 35.128906 6.382813 35.269531 6.71875 C 35.40625 7.054688 35.511719 7.398438 35.582031 7.753906 C 35.652344 8.109375 35.6875 8.46875 35.6875 8.832031 Z M 35.6875 8.832031 "
     id="path25" />
  <g
     clip-path="url(#clip-1)"
     id="g29">
    <path
       fill="none"
       stroke-width="1"
       stroke-linecap="butt"
       stroke-linejoin="miter"
       stroke="#10739e"
       stroke-opacity="1"
       stroke-miterlimit="4"
       d="m 47.9984,11.502505 c 0,0.488381 -0.04778,0.976763 -0.143329,1.459835 -0.09555,0.483073 -0.238883,0.950221 -0.42468,1.406751 -0.191106,0.456531 -0.419371,0.886519 -0.695413,1.295273 -0.270733,0.414062 -0.583934,0.790965 -0.934294,1.141326 -0.345053,0.345052 -0.721956,0.658253 -1.136018,0.928986 -0.408754,0.276042 -0.838742,0.504307 -1.295273,0.695413 -0.45653,0.185797 -0.923678,0.329127 -1.406751,0.42468 -0.483072,0.09555 -0.971454,0.143329 -1.465144,0.143329 -0.488381,0 -0.976763,-0.04778 -1.459836,-0.143329 -0.483073,-0.09555 -0.95022,-0.238883 -1.406751,-0.42468 -0.45653,-0.191106 -0.886518,-0.419371 -1.295272,-0.695413 -0.414063,-0.270733 -0.790966,-0.583934 -1.141326,-0.928986 -0.345052,-0.350361 -0.658253,-0.727264 -0.928987,-1.141326 -0.276041,-0.408754 -0.504307,-0.838742 -0.695412,-1.295273 -0.185798,-0.45653 -0.329127,-0.923678 -0.42468,-1.406751 -0.09555,-0.483072 -0.143329,-0.971454 -0.143329,-1.459835 0,-0.49369 0.04778,-0.982072 0.143329,-1.465145 0.09555,-0.483073 0.238882,-0.95022 0.42468,-1.406751 0.191105,-0.45653 0.419371,-0.886518 0.695412,-1.295272 0.270734,-0.414063 0.583935,-0.790966 0.928987,-1.136018 0.35036,-0.35036 0.727263,-0.663561 1.141326,-0.934295 0.408754,-0.276041 0.838742,-0.504307 1.295272,-0.695412 0.456531,-0.185798 0.923678,-0.329127 1.406751,-0.42468 0.483073,-0.095553 0.971455,-0.143329 1.459836,-0.143329 0.49369,0 0.982072,0.047776 1.465144,0.143329 0.483073,0.095553 0.950221,0.238882 1.406751,0.42468 0.456531,0.191105 0.886519,0.419371 1.295273,0.695412 0.414062,0.270734 0.790965,0.583935 1.136018,0.934295 0.35036,0.345052 0.663561,0.721955 0.934294,1.136018 0.276042,0.408754 0.504307,0.838742 0.695413,1.295272 0.185797,0.456531 0.329127,0.923678 0.42468,1.406751 0.09555,0.483073 0.143329,0.971455 0.143329,1.465145 z m 0,0"
       transform="matrix(0.735849,0,0,0.735849,0.367925,0.367925)"
       id="path27" />
  </g>
  <g
     clip-path="url(#clip-2)"
     id="g33">
    <path
       fill="none"
       stroke-width="4"
       stroke-linecap="butt"
       stroke-linejoin="miter"
       stroke="#000000"
       stroke-opacity="1"
       stroke-miterlimit="10"
       d="m 16.801383,35.200623 18.39924,-18.39924"
       transform="scale(0.735849)"
       id="path31" />
  </g>
</svg>
