<?xml version="1.0" encoding="UTF-8" standalone="no"?>
<svg 
   width="39.119999pt"
   height="41.040001pt"
   viewBox="0 0 39.119999 41.040001"
   version="1.1"
   id="svg24"
   xmlns="http://www.w3.org/2000/svg"
   xmlns:svg="http://www.w3.org/2000/svg" content="%3Cmxfile%20host%3D%22www.draw.io%22%20modified%3D%222022-12-29T19%3A43%3A14.916Z%22%20agent%3D%225.0%20(X11)%22%20version%3D%2220.7.4%22%20etag%3D%22GmXy5W7k55K2si17ArOC%22%3E%3Cdiagram%20id%3D%22ml6YpkQ7tsCX5V7Q5MPy%22%3ExZVNj5swEIZ%2FDVcEdthmjwlNtodWqpRDj5UDA1g1DDJOIf31HcDmY7PR7qor9RLZz8zY4%2Fc1jsfjsnvSoi6%2BYQrKY0HaefyzxxjjEf324DqCMHwcQa5latEMTvIPWBhYepEpNKtEg6iMrNcwwaqCxKyY0BrbdVqGar1rLXK4AadEqFv6Q6amGOk2Cmb%2BBWReuJ3DwEZK4ZItaAqRYrtA%2FODxWCOacVR2MaheO6fLWHe8E50a01CZtxSwseC3UBd7NtuXubrDtoU0cKpF0s9b8tPj%2B8KUimYhDUVTjxJnsgNadW9XBG2gu9tVOJ2V7ghgCUZfKcUWbKw60%2FWw83YW22ldLHR2TFh782nhWQEaWBFeFoS%2FLkh%2FNEmX4as4g%2FqOjTQSKwqd0RgsSQGXsFMy7wMGn2lGrtf9YmWX99%2BHfxaNTHzSx8RYJQel6CJDn2cI7ap82DnwWUQMqnQmgwE6cZcw8CM%2BlGn8BTEq1EPHPHjYpvBIkUwqteAbJrJMEKc2UknmuFiFFXyQlZ%2F86JmZE1nY6V6EpZ2O%2FYudm%2F9np0guBn4aLcVo1354%2Fsii9zm0Ox539x3SaITtN6RP%2FUMse2D%2BdrP2jAUveMaYz%2FmtbSHzw%2FDdztF0fvWG2OKvgx%2F%2BAg%3D%3D%3C%2Fdiagram%3E%3C%2Fmxfile%3E">
  <defs
     id="defs8">
    <clipPath
       id="clip-0">
      <path
         clip-rule="nonzero"
         d="M 0 0 L 39 0 L 39 39 L 0 39 Z M 0 0 "
         id="path2" />
    </clipPath>
    <clipPath
       id="clip-1">
      <path
         clip-rule="nonzero"
         d="M 7 0 L 39 0 L 39 29 L 7 29 Z M 7 0 "
         id="path5" />
    </clipPath>
  </defs>
  <path
     fill-rule="nonzero"
     fill="rgb(100%, 100%, 100%)"
     fill-opacity="1"
     stroke-width="1"
     stroke-linecap="butt"
     stroke-linejoin="miter"
     stroke="rgb(0%, 0%, 0%)"
     stroke-opacity="1"
     stroke-miterlimit="4"
     d="M 1.002304 1.002304 L 50.997699 1.002304 L 50.997699 50.997699 L 1.002304 50.997699 Z M 1.002304 1.002304 "
     transform="matrix(0.735849, 0, 0, 0.735849, 0.367925, 0.367925)"
     id="path10" />
  <path
     fill-rule="nonzero"
     fill="rgb(25.878906%, 68.629456%, 98.039246%)"
     fill-opacity="1"
     d="M 32.378906 19.5 C 32.378906 25.453125 28.292969 30.632813 22.507813 32.023438 C 16.71875 33.414063 10.730469 30.648438 8.027344 25.34375 C 5.320313 20.042969 6.609375 13.578125 11.132813 9.707031 C 15.667969 5.84375 22.253906 5.585938 27.070313 9.082031 L 23.054688 14.605469 C 20.796875 12.957031 17.695313 13.082031 15.570313 14.902344 C 13.445313 16.71875 12.832031 19.757813 14.105469 22.246094 C 15.378906 24.738281 18.191406 26.042969 20.914063 25.386719 C 23.636719 24.730469 25.554688 22.296875 25.554688 19.5 Z M 32.378906 19.5 "
     id="path12" />
  <g
     clip-path="url(#clip-0)"
     id="g16">
    <path
       fill="none"
       stroke-width="1"
       stroke-linecap="butt"
       stroke-linejoin="miter"
       stroke="#068de9"
       stroke-opacity="1"
       stroke-miterlimit="10"
       d="m 43.502106,26.000001 c 0,8.090145 -5.552685,15.129208 -13.414564,17.019032 C 22.220354,44.908857 14.082433,41.150443 10.408955,33.941508 6.730169,26.737882 8.481972,17.952325 14.629208,12.691607 20.792369,7.441507 29.74249,7.091146 36.287863,11.842248 l -5.457132,7.506211 c -3.06831,-2.240185 -7.283254,-2.070313 -10.171074,0.403445 -2.887821,2.46845 -3.721255,6.598458 -1.990686,9.979969 1.730569,3.386819 5.552685,5.159856 9.252705,4.268029 3.70002,-0.891827 6.306491,-4.199019 6.306491,-7.999901 z m 0,0"
       transform="matrix(0.735849,0,0,0.735849,0.367925,0.367925)"
       id="path14" />
  </g>
  <path
     fill-rule="nonzero"
     fill="rgb(25.878906%, 68.629456%, 98.039246%)"
     fill-opacity="1"
     d="M 26.378906 3.933594 L 29.984375 15.507813 L 18.164063 18.164063 Z M 26.378906 3.933594 "
     id="path18" />
  <g
     clip-path="url(#clip-1)"
     id="g22">
    <path
       fill="none"
       stroke-width="1"
       stroke-linecap="butt"
       stroke-linejoin="miter"
       stroke="#068de9"
       stroke-opacity="1"
       stroke-miterlimit="10"
       d="M 23.838581,23.609228 35.010483,11.501395 46.168392,23.607909 Z m 0,0"
       transform="matrix(-0.367925,0.637264,-0.637264,-0.367925,50.195014,-2.571461)"
       id="path20" />
  </g>
</svg>
